<svg viewBox="0 0 900 420" xmlns="http://www.w3.org/2000/svg" class="chart">
<defs>
<linearGradient id="gbh" x1="0" y1="0" x2="0" y2="1"><stop offset="0" stop-color="#ff5a5a" stop-opacity="0.22"/><stop offset="1" stop-color="#ff5a5a" stop-opacity="0"/></linearGradient>
<linearGradient id="gsys" x1="0" y1="0" x2="0" y2="1"><stop offset="0" stop-color="#20e07a" stop-opacity="0.20"/><stop offset="1" stop-color="#20e07a" stop-opacity="0"/></linearGradient>
</defs>
<line x1="56" y1="28.0" x2="876" y2="28.0" class="grid"/><text x="48" y="31.0" class="ytick">0%</text><line x1="56" y1="108.3" x2="876" y2="108.3" class="grid"/><text x="48" y="111.3" class="ytick">-15%</text><line x1="56" y1="188.6" x2="876" y2="188.6" class="grid"/><text x="48" y="191.6" class="ytick">-30%</text><line x1="56" y1="268.9" x2="876" y2="268.9" class="grid"/><text x="48" y="271.9" class="ytick">-45%</text><line x1="56" y1="349.2" x2="876" y2="349.2" class="grid"/><text x="48" y="352.2" class="ytick">-60%</text>
<path d="M56.0,28.0 L56.0,28.0 L62.5,72.0 L69.0,78.4 L75.5,97.5 L82.0,100.2 L88.5,84.8 L95.0,87.4 L101.6,63.9 L108.1,106.3 L114.6,85.8 L121.1,87.1 L127.6,90.2 L134.1,85.4 L140.6,84.8 L147.1,98.9 L153.6,107.3 L160.1,102.2 L166.6,109.3 L173.1,110.3 L179.7,101.6 L186.2,90.5 L192.7,104.6 L199.2,75.0 L205.7,88.4 L212.2,90.5 L218.7,78.7 L225.2,66.3 L231.7,56.5 L238.2,59.6 L244.7,50.2 L251.2,51.8 L257.7,43.5 L264.3,28.0 L270.8,43.5 L277.3,52.8 L283.8,43.5 L290.3,48.5 L296.8,40.9 L303.3,77.9 L309.8,53.4 L316.3,58.7 L322.8,74.3 L329.3,91.1 L335.8,108.6 L342.3,116.2 L348.9,129.8 L355.4,116.9 L361.9,113.3 L368.4,144.0 L374.9,136.1 L381.4,138.1 L387.9,121.2 L394.4,98.1 L400.9,91.8 L407.4,104.7 L413.9,102.7 L420.4,109.3 L427.0,122.2 L433.5,150.0 L440.0,165.8 L446.5,180.7 L453.0,170.8 L459.5,185.6 L466.0,174.1 L472.5,195.2 L479.0,232.9 L485.5,260.7 L492.0,250.4 L498.5,270.3 L505.0,287.4 L511.6,294.0 L518.1,262.3 L524.6,247.8 L531.1,280.8 L537.6,308.3 L544.1,317.2 L550.6,349.9 L557.1,329.0 L563.6,335.0 L570.1,333.4 L576.6,310.6 L583.1,299.0 L589.7,286.8 L596.2,307.9 L602.7,314.2 L609.2,302.0 L615.7,275.2 L622.2,298.7 L628.7,316.8 L635.2,319.5 L641.7,309.2 L648.2,289.7 L654.7,305.9 L661.2,287.4 L667.7,292.1 L674.3,289.1 L680.8,319.5 L687.3,316.2 L693.8,312.9 L700.3,312.2 L706.8,323.5 L713.3,286.8 L719.8,281.8 L726.3,284.8 L732.8,273.5 L739.3,277.2 L745.8,259.7 L752.3,267.3 L758.9,251.1 L765.4,243.5 L771.9,258.7 L778.4,247.1 L784.9,248.7 L791.4,224.6 L797.9,243.8 L804.4,260.0 L810.9,264.6 L817.4,244.1 L823.9,239.9 L830.4,228.0 L837.0,225.6 L843.5,223.6 L850.0,209.1 L856.5,225.0 L863.0,223.0 L869.5,230.9 L876.0,224.6 L876.0,28.0 Z" fill="url(#gbh)"/>
<path d="M56.0,28.0 L56.0,28.0 L62.5,28.4 L69.0,28.3 L75.5,28.0 L82.0,28.0 L88.5,29.9 L95.0,29.0 L101.6,28.0 L108.1,60.2 L114.6,59.9 L121.1,61.2 L127.6,71.4 L134.1,71.3 L140.6,70.6 L147.1,85.1 L153.6,84.2 L160.1,84.5 L166.6,97.4 L173.1,117.8 L179.7,118.4 L186.2,119.0 L192.7,118.2 L199.2,120.0 L205.7,119.8 L212.2,118.4 L218.7,120.1 L225.2,121.6 L231.7,122.7 L238.2,122.3 L244.7,122.2 L251.2,120.9 L257.7,121.2 L264.3,121.9 L270.8,120.7 L277.3,121.6 L283.8,123.0 L290.3,121.5 L296.8,121.6 L303.3,124.1 L309.8,125.5 L316.3,125.1 L322.8,124.0 L329.3,122.1 L335.8,122.0 L342.3,120.9 L348.9,121.6 L355.4,120.4 L361.9,121.6 L368.4,120.9 L374.9,121.0 L381.4,120.0 L387.9,120.2 L394.4,120.2 L400.9,119.4 L407.4,118.3 L413.9,119.0 L420.4,118.1 L427.0,117.5 L433.5,117.4 L440.0,116.8 L446.5,113.7 L453.0,113.9 L459.5,115.7 L466.0,115.5 L472.5,113.3 L479.0,111.3 L485.5,112.8 L492.0,113.9 L498.5,112.4 L505.0,111.1 L511.6,112.2 L518.1,111.0 L524.6,110.0 L531.1,109.8 L537.6,107.3 L544.1,107.8 L550.6,105.8 L557.1,107.3 L563.6,104.9 L570.1,104.4 L576.6,104.2 L583.1,103.4 L589.7,103.9 L596.2,104.9 L602.7,104.2 L609.2,104.0 L615.7,105.4 L622.2,105.2 L628.7,104.5 L635.2,104.6 L641.7,105.1 L648.2,105.4 L654.7,106.1 L661.2,107.2 L667.7,106.5 L674.3,107.1 L680.8,106.8 L687.3,106.8 L693.8,107.1 L700.3,106.6 L706.8,106.9 L713.3,106.7 L719.8,107.1 L726.3,105.3 L732.8,106.4 L739.3,105.1 L745.8,104.6 L752.3,105.1 L758.9,104.8 L765.4,104.9 L771.9,104.9 L778.4,105.2 L784.9,104.9 L791.4,104.8 L797.9,105.3 L804.4,104.2 L810.9,104.0 L817.4,103.4 L823.9,104.6 L830.4,104.1 L837.0,103.6 L843.5,108.3 L850.0,107.2 L856.5,106.0 L863.0,106.0 L869.5,105.4 L876.0,104.2 L876.0,28.0 Z" fill="url(#gsys)"/>
<path d="M56.0,28.0 L62.5,72.0 L69.0,78.4 L75.5,97.5 L82.0,100.2 L88.5,84.8 L95.0,87.4 L101.6,63.9 L108.1,106.3 L114.6,85.8 L121.1,87.1 L127.6,90.2 L134.1,85.4 L140.6,84.8 L147.1,98.9 L153.6,107.3 L160.1,102.2 L166.6,109.3 L173.1,110.3 L179.7,101.6 L186.2,90.5 L192.7,104.6 L199.2,75.0 L205.7,88.4 L212.2,90.5 L218.7,78.7 L225.2,66.3 L231.7,56.5 L238.2,59.6 L244.7,50.2 L251.2,51.8 L257.7,43.5 L264.3,28.0 L270.8,43.5 L277.3,52.8 L283.8,43.5 L290.3,48.5 L296.8,40.9 L303.3,77.9 L309.8,53.4 L316.3,58.7 L322.8,74.3 L329.3,91.1 L335.8,108.6 L342.3,116.2 L348.9,129.8 L355.4,116.9 L361.9,113.3 L368.4,144.0 L374.9,136.1 L381.4,138.1 L387.9,121.2 L394.4,98.1 L400.9,91.8 L407.4,104.7 L413.9,102.7 L420.4,109.3 L427.0,122.2 L433.5,150.0 L440.0,165.8 L446.5,180.7 L453.0,170.8 L459.5,185.6 L466.0,174.1 L472.5,195.2 L479.0,232.9 L485.5,260.7 L492.0,250.4 L498.5,270.3 L505.0,287.4 L511.6,294.0 L518.1,262.3 L524.6,247.8 L531.1,280.8 L537.6,308.3 L544.1,317.2 L550.6,349.9 L557.1,329.0 L563.6,335.0 L570.1,333.4 L576.6,310.6 L583.1,299.0 L589.7,286.8 L596.2,307.9 L602.7,314.2 L609.2,302.0 L615.7,275.2 L622.2,298.7 L628.7,316.8 L635.2,319.5 L641.7,309.2 L648.2,289.7 L654.7,305.9 L661.2,287.4 L667.7,292.1 L674.3,289.1 L680.8,319.5 L687.3,316.2 L693.8,312.9 L700.3,312.2 L706.8,323.5 L713.3,286.8 L719.8,281.8 L726.3,284.8 L732.8,273.5 L739.3,277.2 L745.8,259.7 L752.3,267.3 L758.9,251.1 L765.4,243.5 L771.9,258.7 L778.4,247.1 L784.9,248.7 L791.4,224.6 L797.9,243.8 L804.4,260.0 L810.9,264.6 L817.4,244.1 L823.9,239.9 L830.4,228.0 L837.0,225.6 L843.5,223.6 L850.0,209.1 L856.5,225.0 L863.0,223.0 L869.5,230.9 L876.0,224.6" fill="none" stroke="#ff5a5a" stroke-width="2"/>
<path d="M56.0,28.0 L62.5,28.4 L69.0,28.3 L75.5,28.0 L82.0,28.0 L88.5,29.9 L95.0,29.0 L101.6,28.0 L108.1,60.2 L114.6,59.9 L121.1,61.2 L127.6,71.4 L134.1,71.3 L140.6,70.6 L147.1,85.1 L153.6,84.2 L160.1,84.5 L166.6,97.4 L173.1,117.8 L179.7,118.4 L186.2,119.0 L192.7,118.2 L199.2,120.0 L205.7,119.8 L212.2,118.4 L218.7,120.1 L225.2,121.6 L231.7,122.7 L238.2,122.3 L244.7,122.2 L251.2,120.9 L257.7,121.2 L264.3,121.9 L270.8,120.7 L277.3,121.6 L283.8,123.0 L290.3,121.5 L296.8,121.6 L303.3,124.1 L309.8,125.5 L316.3,125.1 L322.8,124.0 L329.3,122.1 L335.8,122.0 L342.3,120.9 L348.9,121.6 L355.4,120.4 L361.9,121.6 L368.4,120.9 L374.9,121.0 L381.4,120.0 L387.9,120.2 L394.4,120.2 L400.9,119.4 L407.4,118.3 L413.9,119.0 L420.4,118.1 L427.0,117.5 L433.5,117.4 L440.0,116.8 L446.5,113.7 L453.0,113.9 L459.5,115.7 L466.0,115.5 L472.5,113.3 L479.0,111.3 L485.5,112.8 L492.0,113.9 L498.5,112.4 L505.0,111.1 L511.6,112.2 L518.1,111.0 L524.6,110.0 L531.1,109.8 L537.6,107.3 L544.1,107.8 L550.6,105.8 L557.1,107.3 L563.6,104.9 L570.1,104.4 L576.6,104.2 L583.1,103.4 L589.7,103.9 L596.2,104.9 L602.7,104.2 L609.2,104.0 L615.7,105.4 L622.2,105.2 L628.7,104.5 L635.2,104.6 L641.7,105.1 L648.2,105.4 L654.7,106.1 L661.2,107.2 L667.7,106.5 L674.3,107.1 L680.8,106.8 L687.3,106.8 L693.8,107.1 L700.3,106.6 L706.8,106.9 L713.3,106.7 L719.8,107.1 L726.3,105.3 L732.8,106.4 L739.3,105.1 L745.8,104.6 L752.3,105.1 L758.9,104.8 L765.4,104.9 L771.9,104.9 L778.4,105.2 L784.9,104.9 L791.4,104.8 L797.9,105.3 L804.4,104.2 L810.9,104.0 L817.4,103.4 L823.9,104.6 L830.4,104.1 L837.0,103.6 L843.5,108.3 L850.0,107.2 L856.5,106.0 L863.0,106.0 L869.5,105.4 L876.0,104.2" fill="none" stroke="#20e07a" stroke-width="2.2"/>
<line x1="173.1" y1="28" x2="173.1" y2="376" class="trip"/>
<circle cx="173.1" cy="117.8" r="4.5" fill="#4fa3ff" stroke="#0a1220" stroke-width="1.5"/>
<text x="181.1" y="42" class="triplabel">breaker trips · 2008-03-19</text>
<text x="872.0" y="216.6" class="lbl-bh" text-anchor="end">buy &amp; hold −60%</text>
<text x="872.0" y="94.2" class="lbl-sys" text-anchor="end">system −18%</text>
<text x="56.0" y="394" class="xtick">2008-01</text><text x="192.7" y="394" class="xtick">2008-03</text><text x="329.3" y="394" class="xtick">2008-06</text><text x="466.0" y="394" class="xtick">2008-09</text><text x="602.7" y="394" class="xtick">2008-12</text><text x="739.3" y="394" class="xtick">2009-03</text><text x="876.0" y="394" class="xtick">2009-06</text>
</svg>